<?xml version="1.0" encoding="utf-8"?><!-- Uploaded to: SVG Repo, www.svgrepo.com, Generator: SVG Repo Mixer Tools -->
<svg width="800px" height="800px" viewBox="0 0 64 64" id="Layer_1" data-name="Layer 1" xmlns="http://www.w3.org/2000/svg"><defs><style>.cls-1{fill:none;stroke:#000000;stroke-linecap:round;stroke-linejoin:round;stroke-width:2px;}</style></defs><title>first, badge, medal, reward, achievement</title><line class="cls-1" x1="40.21" y1="21.31" x2="23.75" y2="21.31"/><line class="cls-1" x1="39.42" y1="14" x2="16.44" y2="14"/><polyline class="cls-1" points="24.43 32.33 13.41 21.31 12.41 20.31 16.44 14 31.98 29.54"/><line class="cls-1" x1="16.44" y1="14" x2="12.41" y2="20.31"/><path class="cls-1" d="M27,34.51l0,0"/><polyline class="cls-1" points="37.18 34.68 51.03 20.83 47.52 14 40.21 21.31 31.98 29.54"/><line class="cls-1" x1="51.03" y1="20.83" x2="47.52" y2="14"/><path class="cls-1" d="M37.18,34.68a8.83,8.83,0,1,1-2.83-1.36"/><polyline class="cls-1" points="30.1 41.21 32.81 38.5 32.81 45.25"/><circle cx="42.5" cy="14" r="1"/></svg>