<?xml version="1.0" encoding="utf-8"?>
<svg xmlns="http://www.w3.org/2000/svg" xmlns:xlink="http://www.w3.org/1999/xlink" version= "1.1" width="1000px" height="1000px" viewBox="40 626 1000 1000">
<rect x="40" y="626" width="1000" height="1000" fill="rgb(255,255,255)"/>
<g id="layer1">
<g style="fill:rgb(0,0,0); fill-opacity:1.0; stroke-linejoin: miter">
</g>
<g style="fill:rgb(0,0,0); fill-opacity:1.0; stroke-linejoin: miter">
</g>
<g style="fill:rgb(0,0,0); fill-opacity:1.0; stroke-linejoin: miter">
</g>
<g style="fill:rgb(0,0,0); fill-opacity:1.0; stroke-linejoin: miter">
</g>
<g style="fill:rgb(0,0,0); fill-opacity:1.0; stroke-linejoin: miter">
</g>
<g style="fill:rgb(0,0,0); fill-opacity:1.0; stroke-linejoin: miter">
</g>
<g style="fill:rgb(0,0,0); fill-opacity:1.0; stroke-linejoin: miter">
</g>
<g style="fill:rgb(0,0,0); fill-opacity:1.0; stroke-linejoin: miter">
</g>
<g style="fill:rgb(0,0,0); fill-opacity:1.0; stroke-linejoin: miter">
</g>
<g style="fill:rgb(0,0,0); fill-opacity:1.0; stroke-linejoin: miter">
</g>
<g style="fill:rgb(0,0,0); fill-opacity:1.0; stroke-linejoin: miter">
</g>
<g style="fill:rgb(0,0,0); fill-opacity:1.0; stroke-linejoin: miter">
</g>
<g style="fill:rgb(0,0,0); fill-opacity:1.0; stroke-linejoin: miter">
</g>
<g style="fill:rgb(0,0,0); fill-opacity:1.0; stroke-linejoin: miter">
</g>
<g style="fill:rgb(0,0,0); fill-opacity:1.0; stroke-linejoin: miter">
</g>
<g style="fill:rgb(0,0,0); fill-opacity:1.0; stroke-linejoin: miter">
</g>
<g style="fill:rgb(0,0,0); fill-opacity:1.0; stroke-linejoin: miter">
</g>
<g style="fill:rgb(0,0,0); fill-opacity:1.0; stroke-linejoin: miter">
</g>
<g style="fill:rgb(0,0,70); fill-opacity:1.0; stroke-linejoin: miter">
<path d="M277.54175,698.11664L277.54175,698.11664L280.9961,1531.6312C281.07144,1549.8086,266.39682,1564.6053,248.21947,1564.6807C230.0421,1564.756,215.24538,1550.0813,215.17004,1531.9039L215.17004,1531.9039L211.7157,698.38947C211.64037,680.2121,226.31496,665.41534,244.49232,665.34C262.66968,665.2647,277.4664,679.9393,277.54175,698.11664 Z"/>
</g>
<g style="fill:rgb(0,0,70); fill-opacity:1.0; stroke-linejoin: miter">
<path d="M249.37668,1502.1592L249.37668,1502.1592L885.64056,1499.5261C903.81793,1499.4509,918.6146,1514.1256,918.6898,1532.303C918.765,1550.4803,904.0904,1565.2771,885.913,1565.3523L885.913,1565.3523L249.64908,1567.9854C231.47171,1568.0605,216.67508,1553.3859,216.59985,1535.2085C216.52463,1517.0311,231.19931,1502.2344,249.37668,1502.1592 Z"/>
</g>
<g style="fill:rgb(161,161,161); fill-opacity:1.0; stroke-linejoin: miter">
<path d="M357.54028,1306.9926L357.54028,1306.9926L757.727,1305.336C775.90436,1305.2609,790.701,1319.9354,790.77625,1338.1128C790.8515,1356.2902,776.1768,1371.0868,757.99945,1371.162L757.99945,1371.162L357.81274,1372.8185C339.63538,1372.8937,324.83875,1358.2191,324.7635,1340.0417C324.68823,1321.8644,339.3629,1307.0677,357.54028,1306.9926 Z"/>
</g>
<g style="fill:rgb(161,161,161); fill-opacity:1.0; stroke-linejoin: miter">
<path d="M358.95273,1090.0499L358.95273,1090.0499L637.39795,1088.0781C655.575,1087.9495,670.4148,1102.5806,670.5435,1120.7576C670.67224,1138.9346,656.0412,1153.7744,637.86414,1153.9031L637.86414,1153.9031L359.41885,1155.8749C341.2418,1156.0035,326.40204,1141.3724,326.27332,1123.1954C326.1446,1105.0184,340.77567,1090.1786,358.95273,1090.0499 Z"/>
</g>
<g style="fill:rgb(161,161,161); fill-opacity:1.0; stroke-linejoin: miter">
<path d="M353.5587,875.2944L353.5587,875.2944L525.73364,874.5806C543.911,874.50525,558.7077,889.1799,558.7831,907.35724C558.85846,925.5346,544.18384,940.3313,526.0065,940.4067L526.0065,940.4067L353.83157,941.1204C335.6542,941.1958,320.85745,926.5212,320.7821,908.3438C320.70676,890.16644,335.38132,875.36975,353.5587,875.2944 Z"/>
</g>
</g>
</svg>